<svg xmlns="http://www.w3.org/2000/svg" viewBox="0 0 32 32">
  <rect width="32" height="32" rx="6" fill="#0a0a0a"/>
  <!-- Lobster silhouette -->
  <path fill="white" d="M16 6c-1 0-2 1-2 2v1c-2 0-3 1-4 2-1 1-1 2-1 3 0 1 0 2 1 2v5c0 2 1 3 2 4h8c1-1 2-2 2-4v-5c1 0 1-1 1-2 0-1 0-2-1-3-1-1-2-2-4-2v-1c0-1-1-2-2-2z"/>
  <!-- Claws -->
  <ellipse cx="8" cy="12" rx="2.5" ry="3" fill="white"/>
  <ellipse cx="24" cy="12" rx="2.5" ry="3" fill="white"/>
  <!-- Antennae -->
  <path stroke="white" stroke-width="1.5" stroke-linecap="round" d="M13 7l-2-3M19 7l2-3"/>
</svg>